<svg width="206" height="57" viewBox="0 0 206 57" fill="none" xmlns="http://www.w3.org/2000/svg">
<path d="M3.03835 45V19.9091H8.77202V24.0909H9.03338C9.49077 22.6425 10.2749 21.5263 11.3857 20.7422C12.5073 19.9472 13.7869 19.5497 15.2244 19.5497C15.5511 19.5497 15.916 19.566 16.3189 19.5987C16.7327 19.6205 17.0758 19.6586 17.348 19.7131V25.1527C17.0975 25.0656 16.7 24.9893 16.1555 24.924C15.6219 24.8478 15.1046 24.8097 14.6037 24.8097C13.5256 24.8097 12.5563 25.0438 11.696 25.5121C10.8466 25.9695 10.1768 26.6065 9.68679 27.4233C9.19673 28.2401 8.9517 29.1821 8.9517 30.2493V45H3.03835ZM31.3514 45.4901C28.8358 45.4901 26.6632 44.9673 24.8336 43.9219C23.015 42.8655 21.6156 41.3736 20.6355 39.446C19.6554 37.5076 19.1653 35.2261 19.1653 32.6016C19.1653 30.0206 19.6554 27.7554 20.6355 25.8061C21.6265 23.8459 23.0095 22.3213 24.7846 21.2322C26.5597 20.1323 28.6452 19.5824 31.041 19.5824C32.5874 19.5824 34.0467 19.8329 35.4189 20.3338C36.8019 20.8239 38.0216 21.5862 39.0779 22.6207C40.1452 23.6553 40.9837 24.973 41.5936 26.5739C42.2034 28.1638 42.5083 30.0587 42.5083 32.2585V34.0717H21.9423V30.0859H36.84C36.8291 28.9534 36.5841 27.946 36.1049 27.0639C35.6258 26.1709 34.956 25.4685 34.0957 24.9567C33.2463 24.4448 32.2553 24.1889 31.1227 24.1889C29.9139 24.1889 28.8521 24.483 27.9373 25.071C27.0226 25.6482 26.3092 26.4105 25.7974 27.358C25.2965 28.2945 25.0405 29.3236 25.0297 30.4453V33.9247C25.0297 35.384 25.2965 36.6364 25.8301 37.6818C26.3637 38.7164 27.1097 39.5114 28.068 40.0668C29.0263 40.6113 30.148 40.8835 31.4331 40.8835C32.2934 40.8835 33.072 40.7637 33.769 40.5241C34.466 40.2737 35.0704 39.9089 35.5822 39.4297C36.094 38.9505 36.4806 38.357 36.742 37.6491L42.2633 38.2699C41.9148 39.7292 41.2505 41.0033 40.2704 42.0923C39.3012 43.1705 38.0597 44.009 36.546 44.608C35.0323 45.196 33.3007 45.4901 31.3514 45.4901ZM54.7312 45.5064C53.1412 45.5064 51.7092 45.2232 50.435 44.657C49.1718 44.0798 48.1699 43.2304 47.4293 42.1087C46.6997 40.987 46.3349 39.6039 46.3349 37.9595C46.3349 36.5438 46.5962 35.3731 47.119 34.4474C47.6417 33.5218 48.355 32.7812 49.2589 32.2259C50.1628 31.6705 51.181 31.2512 52.3136 30.968C53.457 30.674 54.6386 30.4616 55.8583 30.331C57.3285 30.1785 58.521 30.0424 59.4357 29.9226C60.3505 29.7919 61.0148 29.5959 61.4286 29.3345C61.8533 29.0623 62.0657 28.643 62.0657 28.0767V27.9787C62.0657 26.7481 61.7009 25.7952 60.9712 25.12C60.2416 24.4448 59.1907 24.1072 57.8185 24.1072C56.3701 24.1072 55.2212 24.4231 54.3718 25.0547C53.5333 25.6863 52.967 26.4323 52.6729 27.2926L47.1516 26.5085C47.5872 24.9839 48.306 23.7098 49.3079 22.6861C50.3098 21.6515 51.5349 20.8783 52.9833 20.3665C54.4317 19.8438 56.0326 19.5824 57.7859 19.5824C58.9947 19.5824 60.198 19.724 61.396 20.0071C62.5939 20.2902 63.6883 20.7585 64.6793 21.4119C65.6703 22.0544 66.4653 22.9311 67.0643 24.0419C67.6741 25.1527 67.9791 26.5412 67.9791 28.2074V45H62.2944V41.5533H62.0984C61.739 42.2502 61.2326 42.9036 60.5792 43.5135C59.9367 44.1125 59.1254 44.5971 58.1452 44.9673C57.176 45.3267 56.038 45.5064 54.7312 45.5064ZM56.2667 41.1612C57.4537 41.1612 58.4828 40.9271 59.354 40.4588C60.2253 39.9796 60.895 39.348 61.3633 38.5639C61.8424 37.7798 62.082 36.925 62.082 35.9993V33.0426C61.8969 33.1951 61.5811 33.3366 61.1346 33.4673C60.699 33.598 60.2089 33.7124 59.6644 33.8104C59.1199 33.9084 58.5808 33.9955 58.0472 34.0717C57.5136 34.148 57.0508 34.2133 56.6587 34.2678C55.7766 34.3875 54.9871 34.5836 54.2901 34.8558C53.5932 35.1281 53.0432 35.5092 52.6403 35.9993C52.2373 36.4785 52.0359 37.0992 52.0359 37.8615C52.0359 38.9505 52.4334 39.7727 53.2283 40.3281C54.0233 40.8835 55.0361 41.1612 56.2667 41.1612ZM83.2362 45.4411C81.265 45.4411 79.5008 44.9347 77.9435 43.9219C76.3862 42.9091 75.1557 41.4389 74.2518 39.5114C73.3479 37.5838 72.896 35.2424 72.896 32.4872C72.896 29.6993 73.3533 27.3471 74.2681 25.4304C75.1938 23.5028 76.4407 22.049 78.0089 21.0689C79.5771 20.0779 81.3249 19.5824 83.2525 19.5824C84.7227 19.5824 85.9315 19.8329 86.8789 20.3338C87.8264 20.8239 88.5778 21.4174 89.1332 22.1143C89.6886 22.8004 90.1187 23.4484 90.4237 24.0582H90.6687V11.5455H96.5984V45H90.783V41.0469H90.4237C90.1187 41.6567 89.6777 42.3047 89.1005 42.9908C88.5233 43.666 87.761 44.2431 86.8136 44.7223C85.8661 45.2015 84.6737 45.4411 83.2362 45.4411ZM84.886 40.5895C86.1384 40.5895 87.2056 40.2519 88.0877 39.5767C88.9698 38.8906 89.6396 37.9377 90.0969 36.718C90.5543 35.4983 90.783 34.0772 90.783 32.4545C90.783 30.8319 90.5543 29.4216 90.0969 28.2237C89.6505 27.0258 88.9862 26.0947 88.104 25.4304C87.2328 24.7661 86.1602 24.4339 84.886 24.4339C83.5683 24.4339 82.4684 24.777 81.5863 25.4631C80.7042 26.1491 80.0399 27.0966 79.5934 28.3054C79.1469 29.5142 78.9237 30.8973 78.9237 32.4545C78.9237 34.0227 79.1469 35.4221 79.5934 36.6527C80.0508 37.8724 80.7205 38.8362 81.6026 39.544C82.4956 40.241 83.5901 40.5895 84.886 40.5895ZM122.731 26.5412L117.34 27.1293C117.188 26.5848 116.921 26.0729 116.54 25.5938C116.169 25.1146 115.668 24.728 115.037 24.4339C114.405 24.1399 113.632 23.9929 112.717 23.9929C111.487 23.9929 110.452 24.2597 109.613 24.7933C108.786 25.3269 108.377 26.0185 108.388 26.8679C108.377 27.5975 108.644 28.1911 109.189 28.6484C109.744 29.1058 110.659 29.4815 111.933 29.7756L116.213 30.6903C118.587 31.2022 120.351 32.0135 121.506 33.1243C122.671 34.2351 123.259 35.6889 123.27 37.4858C123.259 39.0649 122.796 40.4588 121.881 41.6676C120.977 42.8655 119.72 43.8021 118.108 44.4773C116.496 45.1525 114.645 45.4901 112.554 45.4901C109.483 45.4901 107.011 44.8475 105.138 43.5625C103.265 42.2666 102.148 40.4643 101.789 38.1555L107.555 37.6001C107.817 38.7327 108.372 39.5876 109.221 40.1648C110.071 40.742 111.176 41.0305 112.537 41.0305C113.942 41.0305 115.069 40.742 115.919 40.1648C116.779 39.5876 117.209 38.8743 117.209 38.0249C117.209 37.3061 116.932 36.7126 116.376 36.2443C115.832 35.776 114.982 35.4167 113.828 35.1662L109.548 34.2678C107.141 33.7668 105.361 32.9228 104.206 31.7358C103.052 30.5379 102.48 29.0241 102.491 27.1946C102.48 25.6482 102.9 24.3087 103.749 23.1761C104.609 22.0327 105.802 21.1506 107.327 20.5298C108.862 19.8982 110.632 19.5824 112.635 19.5824C115.576 19.5824 117.89 20.2086 119.578 21.4609C121.277 22.7133 122.328 24.4067 122.731 26.5412Z" fill="#333333"/>
<rect x="131" y="2" width="75" height="55" rx="20" fill="#333333"/>
<path d="M147.681 45.3594C146.69 45.3594 145.841 45.0109 145.133 44.3139C144.425 43.617 144.076 42.7675 144.087 41.7656C144.076 40.7855 144.425 39.947 145.133 39.25C145.841 38.553 146.69 38.2045 147.681 38.2045C148.639 38.2045 149.473 38.553 150.18 39.25C150.899 39.947 151.264 40.7855 151.275 41.7656C151.264 42.4299 151.09 43.0343 150.752 43.5788C150.425 44.1233 149.99 44.5589 149.445 44.8857C148.912 45.2015 148.324 45.3594 147.681 45.3594ZM164.6 45.5064C163.01 45.5064 161.578 45.2232 160.304 44.657C159.041 44.0798 158.039 43.2304 157.298 42.1087C156.569 40.987 156.204 39.6039 156.204 37.9595C156.204 36.5438 156.465 35.3731 156.988 34.4474C157.511 33.5218 158.224 32.7812 159.128 32.2259C160.032 31.6705 161.05 31.2512 162.183 30.968C163.326 30.674 164.508 30.4616 165.727 30.331C167.198 30.1785 168.39 30.0424 169.305 29.9226C170.22 29.7919 170.884 29.5959 171.298 29.3345C171.722 29.0623 171.935 28.643 171.935 28.0767V27.9787C171.935 26.7481 171.57 25.7952 170.84 25.12C170.111 24.4448 169.06 24.1072 167.688 24.1072C166.239 24.1072 165.09 24.4231 164.241 25.0547C163.402 25.6863 162.836 26.4323 162.542 27.2926L157.021 26.5085C157.456 24.9839 158.175 23.7098 159.177 22.6861C160.179 21.6515 161.404 20.8783 162.852 20.3665C164.301 19.8438 165.902 19.5824 167.655 19.5824C168.864 19.5824 170.067 19.724 171.265 20.0071C172.463 20.2902 173.557 20.7585 174.548 21.4119C175.539 22.0544 176.334 22.9311 176.933 24.0419C177.543 25.1527 177.848 26.5412 177.848 28.2074V45H172.164V41.5533H171.968C171.608 42.2502 171.102 42.9036 170.448 43.5135C169.806 44.1125 168.994 44.5971 168.014 44.9673C167.045 45.3267 165.907 45.5064 164.6 45.5064ZM166.136 41.1612C167.323 41.1612 168.352 40.9271 169.223 40.4588C170.094 39.9796 170.764 39.348 171.232 38.5639C171.712 37.7798 171.951 36.925 171.951 35.9993V33.0426C171.766 33.1951 171.45 33.3366 171.004 33.4673C170.568 33.598 170.078 33.7124 169.534 33.8104C168.989 33.9084 168.45 33.9955 167.916 34.0717C167.383 34.148 166.92 34.2133 166.528 34.2678C165.646 34.3875 164.856 34.5836 164.159 34.8558C163.462 35.1281 162.912 35.5092 162.509 35.9993C162.106 36.4785 161.905 37.0992 161.905 37.8615C161.905 38.9505 162.302 39.7727 163.097 40.3281C163.892 40.8835 164.905 41.1612 166.136 41.1612ZM183.794 45V19.9091H189.708V45H183.794ZM186.767 16.348C185.831 16.348 185.025 16.0376 184.35 15.4169C183.674 14.7853 183.337 14.0284 183.337 13.1463C183.337 12.2533 183.674 11.4964 184.35 10.8757C185.025 10.2441 185.831 9.92827 186.767 9.92827C187.715 9.92827 188.521 10.2441 189.185 10.8757C189.86 11.4964 190.198 12.2533 190.198 13.1463C190.198 14.0284 189.86 14.7853 189.185 15.4169C188.521 16.0376 187.715 16.348 186.767 16.348Z" fill="white"/>
</svg>
